<svg xmlns="http://www.w3.org/2000/svg" viewBox="0 0 512 512" width="512" height="512">
  <defs>
    <linearGradient id="s" x1="0" y1="0" x2="1" y2="1"><stop offset="0" stop-color="#eceef0"/><stop offset="1" stop-color="#cfd1d3"/></linearGradient>
    <linearGradient id="l" x1="0" y1="0" x2="0" y2="1"><stop offset="0" stop-color="#d3d6cc"/><stop offset="1" stop-color="#c0c4b9"/></linearGradient>
  </defs>
  <rect width="512" height="512" fill="#17191b"/>
  <rect x="0" y="250" width="512" height="262" fill="url(#s)"/>
  <rect x="44" y="70" width="424" height="142" rx="8" fill="#0b0c0d"/>
  <rect x="54" y="80" width="404" height="122" rx="4" fill="url(#l)"/>
  <g transform="translate(372 98) skewX(-7)" fill="#161b18">
    <polygon points="6,4 10,0 34,0 38,4 34,8 10,8"/>
    <polygon points="40,8 44,12 44,40 40,44 36,40 36,12"/>
    <polygon points="40,50 44,54 44,82 40,86 36,82 36,54"/>
    <polygon points="6,90 10,86 34,86 38,90 34,94 10,94"/>
    <polygon points="4,50 8,54 8,82 4,86 0,82 0,54"/>
    <polygon points="4,8 8,12 8,40 4,44 0,40 0,12"/>
    <rect x="48" y="84" width="10" height="10"/>
  </g>
  <g fill="#1f2226">
    <rect x="44" y="290" width="92" height="76" rx="12"/><rect x="152" y="290" width="92" height="76" rx="12"/><rect x="260" y="290" width="92" height="76" rx="12"/>
    <rect x="44" y="384" width="92" height="76" rx="12"/><rect x="152" y="384" width="92" height="76" rx="12"/><rect x="260" y="384" width="92" height="76" rx="12"/>
  </g>
  <rect x="376" y="290" width="92" height="76" rx="12" fill="#c15a87"/>
  <rect x="376" y="384" width="92" height="76" rx="12" fill="#3d4749"/>
</svg>
